<svg id="Layer_1" data-name="Layer 1" xmlns="http://www.w3.org/2000/svg" viewBox="0 0 96 124"><defs><style>.cls-1,.cls-5{fill:none;}.cls-2{fill:#fff;}.cls-3{isolation:isolate;font-size:10px;font-family:MyriadPro-Regular, Myriad Pro;}.cls-4{fill:red;}.cls-5{stroke:#888;stroke-linecap:round;stroke-width:2px;}.cls-6{fill:#888;}</style></defs><title>stuff</title><rect id="background" class="cls-1" width="96" height="124"/><path d="M13,1.5v13L1.74,8Z"/><path d="M17.5,3h13L24,14.26Z"/><path d="M35,1.5v13L46.26,8Z"/><path class="cls-2" d="M13,17.5v13L1.74,24Z"/><path class="cls-2" d="M17.5,19h13L24,30.26Z"/><path class="cls-2" d="M35,17.5v13L46.26,24Z"/><text class="cls-3" transform="translate(52.94 28)">✓</text><path class="cls-4" d="M2,40v6H44V40H33.5l-3-3h-15l-3,3Z"/><rect class="cls-4" x="5" y="49" width="36" height="20"/><rect class="cls-4" x="5" y="49" width="36" height="42" rx="4" ry="4"/><circle class="cls-5" cx="16" cy="108" r="11.5"/><circle class="cls-6" cx="16" cy="108" r="4.3"/><path class="cls-5" d="M28,108h3"/><path class="cls-5" d="M1,108H4"/><path class="cls-5" d="M16,120v3"/><path class="cls-5" d="M16,93v3"/><circle class="cls-5" cx="48" cy="108" r="15"/><path class="cls-5" d="M48,101.6v12.8"/><path class="cls-5" d="M41.6,108H54.4"/><circle class="cls-5" cx="80" cy="108" r="15"/><path class="cls-5" d="M73.6,108H86.4"/></svg>